<?xml version="1.0" encoding="UTF-8" standalone="no"?>
<!DOCTYPE svg PUBLIC "-//W3C//DTD SVG 1.1//EN"
 "http://www.w3.org/Graphics/SVG/1.1/DTD/svg11.dtd">
<!-- Generated by graphviz version 2.38.0 (20140413.2041)
 -->
<!-- Title: controllers_diagram Pages: 1 -->
<svg width="360pt" height="241pt"
 viewBox="0.00 0.00 359.90 241.00" xmlns="http://www.w3.org/2000/svg" xmlns:xlink="http://www.w3.org/1999/xlink">
<g id="graph0" class="graph" transform="scale(1 1) rotate(0) translate(68.2104 141.5)">
<title>controllers_diagram</title>
<polygon fill="none" stroke="none" points="-68.2104,99.5 -68.2104,-141.5 291.688,-141.5 291.688,99.5 -68.2104,99.5"/>
<!-- _diagram_info -->
<g id="node1" class="node"><title>_diagram_info</title>
<text text-anchor="start" x="88.3123" y="20.9" font-family="Times,serif" font-size="13.00">Controllers diagram</text>
<text text-anchor="start" x="88.3123" y="33.9" font-family="Times,serif" font-size="13.00">Date: Feb 20 2016 &#45; 17:49</text>
<text text-anchor="start" x="88.3123" y="46.9" font-family="Times,serif" font-size="13.00">Migration version: 20160220085936</text>
<text text-anchor="start" x="88.3123" y="59.9" font-family="Times,serif" font-size="13.00">Generated by RailRoady 1.4.2</text>
<text text-anchor="start" x="88.3123" y="72.9" font-family="Times,serif" font-size="13.00">http://railroady.prestonlee.com</text>
</g>
<!-- ApplicationController -->
<g id="node2" class="node"><title>ApplicationController</title>
<path fill="none" stroke="black" d="M92.1792,-33C92.1792,-33 207.821,-33 207.821,-33 213.821,-33 219.821,-39 219.821,-45 219.821,-45 219.821,-125 219.821,-125 219.821,-131 213.821,-137 207.821,-137 207.821,-137 92.1792,-137 92.1792,-137 86.1792,-137 80.1792,-131 80.1792,-125 80.1792,-125 80.1792,-45 80.1792,-45 80.1792,-39 86.1792,-33 92.1792,-33"/>
<text text-anchor="middle" x="150" y="-121.8" font-family="Times,serif" font-size="14.00">ApplicationController</text>
<polyline fill="none" stroke="black" points="80.1792,-115 219.821,-115 "/>
<text text-anchor="start" x="88.1792" y="-99.8" font-family="Times,serif" font-size="14.00">admin_user</text>
<text text-anchor="start" x="88.1792" y="-85.8" font-family="Times,serif" font-size="14.00">current_user</text>
<polyline fill="none" stroke="black" points="80.1792,-79 219.821,-79 "/>
<polyline fill="none" stroke="black" points="80.1792,-55 219.821,-55 "/>
<text text-anchor="start" x="88.1792" y="-39.8" font-family="Times,serif" font-size="14.00">_layout</text>
</g>
<!-- GamesController -->
<g id="node3" class="node"><title>GamesController</title>
<path fill="none" stroke="black" d="M-52.2104,95C-52.2104,95 36.2104,95 36.2104,95 42.2104,95 48.2104,89 48.2104,83 48.2104,83 48.2104,-67 48.2104,-67 48.2104,-73 42.2104,-79 36.2104,-79 36.2104,-79 -52.2104,-79 -52.2104,-79 -58.2104,-79 -64.2104,-73 -64.2104,-67 -64.2104,-67 -64.2104,83 -64.2104,83 -64.2104,89 -58.2104,95 -52.2104,95"/>
<text text-anchor="middle" x="-8" y="-63.8" font-family="Times,serif" font-size="14.00">GamesController</text>
<polyline fill="none" stroke="black" points="-64.2104,-57 48.2104,-57 "/>
<text text-anchor="start" x="-56.2104" y="-41.8" font-family="Times,serif" font-size="14.00">create</text>
<text text-anchor="start" x="-56.2104" y="-27.8" font-family="Times,serif" font-size="14.00">hit</text>
<text text-anchor="start" x="-56.2104" y="-13.8" font-family="Times,serif" font-size="14.00">index</text>
<text text-anchor="start" x="-56.2104" y="0.2" font-family="Times,serif" font-size="14.00">new</text>
<text text-anchor="start" x="-56.2104" y="14.2" font-family="Times,serif" font-size="14.00">show</text>
<text text-anchor="start" x="-56.2104" y="28.2" font-family="Times,serif" font-size="14.00">stand</text>
<polyline fill="none" stroke="black" points="-64.2104,35 48.2104,35 "/>
<polyline fill="none" stroke="black" points="-64.2104,59 48.2104,59 "/>
<text text-anchor="start" x="-56.2104" y="74.2" font-family="Times,serif" font-size="14.00">_layout</text>
<text text-anchor="start" x="-56.2104" y="88.2" font-family="Times,serif" font-size="14.00">game_params</text>
</g>
</g>
</svg>
