<?xml version="1.0" encoding="UTF-8" standalone="no"?>
<!DOCTYPE svg PUBLIC "-//W3C//DTD SVG 1.1//EN"
 "http://www.w3.org/Graphics/SVG/1.1/DTD/svg11.dtd">
<!-- Generated by graphviz version 2.38.0 (20140413.2041)
 -->
<!-- Title: models_diagram Pages: 1 -->
<svg width="928pt" height="758pt"
 viewBox="0.00 0.00 927.55 758.00" xmlns="http://www.w3.org/2000/svg" xmlns:xlink="http://www.w3.org/1999/xlink">
<g id="graph0" class="graph" transform="scale(1 1) rotate(0) translate(4 754)">
<title>models_diagram</title>
<polygon fill="none" stroke="none" points="-4,4 -4,-754 923.55,-754 923.55,4 -4,4"/>
<!-- _diagram_info -->
<g id="node1" class="node"><title>_diagram_info</title>
<text text-anchor="start" x="8" y="-700.6" font-family="Times,serif" font-size="13.00">Models diagram</text>
<text text-anchor="start" x="8" y="-687.6" font-family="Times,serif" font-size="13.00">Date: Feb 20 2016 &#45; 17:48</text>
<text text-anchor="start" x="8" y="-674.6" font-family="Times,serif" font-size="13.00">Migration version: 20160220085936</text>
<text text-anchor="start" x="8" y="-661.6" font-family="Times,serif" font-size="13.00">Generated by RailRoady 1.4.2</text>
<text text-anchor="start" x="8" y="-648.6" font-family="Times,serif" font-size="13.00">http://railroady.prestonlee.com</text>
</g>
<!-- ApplicationRecord -->
<g id="node2" class="node"><title>ApplicationRecord</title>
<ellipse fill="none" stroke="black" cx="302.688" cy="-678.5" rx="77.2916" ry="18"/>
<text text-anchor="middle" x="302.688" y="-674.3" font-family="Times,serif" font-size="14.00">ApplicationRecord</text>
</g>
<!-- Card -->
<g id="node3" class="node"><title>Card</title>
<path fill="none" stroke="black" d="M113.825,-276.5C113.825,-276.5 337.55,-276.5 337.55,-276.5 343.55,-276.5 349.55,-282.5 349.55,-288.5 349.55,-288.5 349.55,-350.5 349.55,-350.5 349.55,-356.5 343.55,-362.5 337.55,-362.5 337.55,-362.5 113.825,-362.5 113.825,-362.5 107.825,-362.5 101.825,-356.5 101.825,-350.5 101.825,-350.5 101.825,-288.5 101.825,-288.5 101.825,-282.5 107.825,-276.5 113.825,-276.5"/>
<text text-anchor="middle" x="225.688" y="-347.3" font-family="Times,serif" font-size="14.00">Card</text>
<polyline fill="none" stroke="black" points="101.825,-340.5 349.55,-340.5 "/>
<text text-anchor="start" x="109.825" y="-325.3" font-family="Times,serif" font-size="14.00">id :integer</text>
<text text-anchor="start" x="109.825" y="-311.3" font-family="Times,serif" font-size="14.00">name :character varying</text>
<text text-anchor="start" x="109.825" y="-297.3" font-family="Times,serif" font-size="14.00">created_at :timestamp without time zone</text>
<text text-anchor="start" x="109.825" y="-283.3" font-family="Times,serif" font-size="14.00">updated_at :timestamp without time zone</text>
</g>
<!-- Deck -->
<g id="node4" class="node"><title>Deck</title>
<path fill="none" stroke="black" d="M265.825,-138.5C265.825,-138.5 489.55,-138.5 489.55,-138.5 495.55,-138.5 501.55,-144.5 501.55,-150.5 501.55,-150.5 501.55,-212.5 501.55,-212.5 501.55,-218.5 495.55,-224.5 489.55,-224.5 489.55,-224.5 265.825,-224.5 265.825,-224.5 259.825,-224.5 253.825,-218.5 253.825,-212.5 253.825,-212.5 253.825,-150.5 253.825,-150.5 253.825,-144.5 259.825,-138.5 265.825,-138.5"/>
<text text-anchor="middle" x="377.688" y="-209.3" font-family="Times,serif" font-size="14.00">Deck</text>
<polyline fill="none" stroke="black" points="253.825,-202.5 501.55,-202.5 "/>
<text text-anchor="start" x="261.825" y="-187.3" font-family="Times,serif" font-size="14.00">id :integer</text>
<text text-anchor="start" x="261.825" y="-173.3" font-family="Times,serif" font-size="14.00">name :character varying</text>
<text text-anchor="start" x="261.825" y="-159.3" font-family="Times,serif" font-size="14.00">created_at :timestamp without time zone</text>
<text text-anchor="start" x="261.825" y="-145.3" font-family="Times,serif" font-size="14.00">updated_at :timestamp without time zone</text>
</g>
<!-- Card&#45;&gt;Deck -->
<g id="edge2" class="edge"><title>Card&#45;&gt;Deck</title>
<path fill="none" stroke="#f9ed97" d="M280.402,-269.545C294.3,-257.11 309.23,-243.751 323.121,-231.323"/>
<polygon fill="#f9ed97" stroke="#f9ed97" points="280.401,-269.546 269.948,-272.861 276.675,-272.88 272.948,-276.214 272.948,-276.214 272.948,-276.214 276.675,-272.88 275.949,-279.568 280.401,-269.546 280.401,-269.546"/>
<polygon fill="#f9ed97" stroke="#f9ed97" points="323.265,-231.194 333.718,-227.879 326.991,-227.86 330.718,-224.526 330.718,-224.526 330.718,-224.526 326.991,-227.86 327.717,-221.172 323.265,-231.194 323.265,-231.194"/>
</g>
<!-- DeckCard -->
<g id="node5" class="node"><title>DeckCard</title>
<path fill="none" stroke="black" d="M157.825,-0.5C157.825,-0.5 381.55,-0.5 381.55,-0.5 387.55,-0.5 393.55,-6.5 393.55,-12.5 393.55,-12.5 393.55,-88.5 393.55,-88.5 393.55,-94.5 387.55,-100.5 381.55,-100.5 381.55,-100.5 157.825,-100.5 157.825,-100.5 151.825,-100.5 145.825,-94.5 145.825,-88.5 145.825,-88.5 145.825,-12.5 145.825,-12.5 145.825,-6.5 151.825,-0.5 157.825,-0.5"/>
<text text-anchor="middle" x="269.688" y="-85.3" font-family="Times,serif" font-size="14.00">DeckCard</text>
<polyline fill="none" stroke="black" points="145.825,-78.5 393.55,-78.5 "/>
<text text-anchor="start" x="153.825" y="-63.3" font-family="Times,serif" font-size="14.00">id :integer</text>
<text text-anchor="start" x="153.825" y="-49.3" font-family="Times,serif" font-size="14.00">deck_id :integer</text>
<text text-anchor="start" x="153.825" y="-35.3" font-family="Times,serif" font-size="14.00">card_id :integer</text>
<text text-anchor="start" x="153.825" y="-21.3" font-family="Times,serif" font-size="14.00">created_at :timestamp without time zone</text>
<text text-anchor="start" x="153.825" y="-7.3" font-family="Times,serif" font-size="14.00">updated_at :timestamp without time zone</text>
</g>
<!-- Card&#45;&gt;DeckCard -->
<g id="edge1" class="edge"><title>Card&#45;&gt;DeckCard</title>
<path fill="none" stroke="#947962" d="M228.592,-268.231C231.274,-231.822 236.17,-181.556 244.688,-138 246.45,-128.987 248.72,-119.555 251.173,-110.371"/>
<ellipse fill="none" stroke="#947962" cx="228.305" cy="-272.255" rx="4" ry="4"/>
<polygon fill="#947962" stroke="#947962" points="251.227,-110.174 258.227,-101.733 252.558,-105.354 253.889,-100.535 253.889,-100.535 253.889,-100.535 252.558,-105.354 249.552,-99.3368 251.227,-110.174 251.227,-110.174"/>
</g>
<!-- Deck&#45;&gt;DeckCard -->
<g id="edge3" class="edge"><title>Deck&#45;&gt;DeckCard</title>
<path fill="none" stroke="#b8614e" d="M337.043,-131.952C330.596,-124.252 323.879,-116.228 317.29,-108.358"/>
<ellipse fill="none" stroke="#b8614e" cx="339.757" cy="-135.194" rx="4.00002" ry="4.00002"/>
<polygon fill="#b8614e" stroke="#b8614e" points="317.178,-108.224 314.209,-97.6681 313.968,-104.391 310.759,-100.557 310.759,-100.557 310.759,-100.557 313.968,-104.391 307.308,-103.446 317.178,-108.224 317.178,-108.224"/>
</g>
<!-- Game -->
<g id="node6" class="node"><title>Game</title>
<path fill="none" stroke="black" d="M341.825,-414.5C341.825,-414.5 565.55,-414.5 565.55,-414.5 571.55,-414.5 577.55,-420.5 577.55,-426.5 577.55,-426.5 577.55,-544.5 577.55,-544.5 577.55,-550.5 571.55,-556.5 565.55,-556.5 565.55,-556.5 341.825,-556.5 341.825,-556.5 335.825,-556.5 329.825,-550.5 329.825,-544.5 329.825,-544.5 329.825,-426.5 329.825,-426.5 329.825,-420.5 335.825,-414.5 341.825,-414.5"/>
<text text-anchor="middle" x="453.688" y="-541.3" font-family="Times,serif" font-size="14.00">Game</text>
<polyline fill="none" stroke="black" points="329.825,-534.5 577.55,-534.5 "/>
<text text-anchor="start" x="337.825" y="-519.3" font-family="Times,serif" font-size="14.00">id :integer</text>
<text text-anchor="start" x="337.825" y="-505.3" font-family="Times,serif" font-size="14.00">user_id :integer</text>
<text text-anchor="start" x="337.825" y="-491.3" font-family="Times,serif" font-size="14.00">bet :integer</text>
<text text-anchor="start" x="337.825" y="-477.3" font-family="Times,serif" font-size="14.00">admin_id :integer</text>
<text text-anchor="start" x="337.825" y="-463.3" font-family="Times,serif" font-size="14.00">winner_id :integer</text>
<text text-anchor="start" x="337.825" y="-449.3" font-family="Times,serif" font-size="14.00">winning_type :integer</text>
<text text-anchor="start" x="337.825" y="-435.3" font-family="Times,serif" font-size="14.00">created_at :timestamp without time zone</text>
<text text-anchor="start" x="337.825" y="-421.3" font-family="Times,serif" font-size="14.00">updated_at :timestamp without time zone</text>
</g>
<!-- Game&#45;&gt;Card -->
<g id="edge7" class="edge"><title>Game&#45;&gt;Card</title>
<path fill="none" stroke="#49b7dc" d="M347.95,-408.443C329.091,-394.878 309.929,-381.095 292.543,-368.589"/>
<polygon fill="#49b7dc" stroke="#49b7dc" points="348.216,-408.634 353.706,-418.127 352.275,-411.554 356.334,-414.474 356.334,-414.474 356.334,-414.474 352.275,-411.554 358.962,-410.82 348.216,-408.634 348.216,-408.634"/>
<polygon fill="#49b7dc" stroke="#49b7dc" points="292.277,-368.398 286.787,-358.905 288.218,-365.478 284.159,-362.559 284.159,-362.559 284.159,-362.559 288.218,-365.478 281.532,-366.212 292.277,-368.398 292.277,-368.398"/>
</g>
<!-- Game&#45;&gt;Deck -->
<g id="edge6" class="edge"><title>Game&#45;&gt;Deck</title>
<path fill="none" stroke="#078c21" d="M407.336,-405.249C403.204,-395.941 399.52,-386.406 396.688,-377 382.605,-330.229 378.353,-274.55 377.328,-234.774"/>
<polygon fill="#078c21" stroke="#078c21" points="407.403,-405.393 407.52,-416.359 409.503,-409.931 411.604,-414.468 411.604,-414.468 411.604,-414.468 409.503,-409.931 415.687,-412.578 407.403,-405.393 407.403,-405.393"/>
<polygon fill="#078c21" stroke="#078c21" points="377.328,-234.763 381.629,-224.676 377.229,-229.764 377.13,-224.765 377.13,-224.765 377.13,-224.765 377.229,-229.764 372.63,-224.854 377.328,-234.763 377.328,-234.763"/>
</g>
<!-- GameDeck -->
<g id="node8" class="node"><title>GameDeck</title>
<path fill="none" stroke="black" d="M417.825,-269.5C417.825,-269.5 641.55,-269.5 641.55,-269.5 647.55,-269.5 653.55,-275.5 653.55,-281.5 653.55,-281.5 653.55,-357.5 653.55,-357.5 653.55,-363.5 647.55,-369.5 641.55,-369.5 641.55,-369.5 417.825,-369.5 417.825,-369.5 411.825,-369.5 405.825,-363.5 405.825,-357.5 405.825,-357.5 405.825,-281.5 405.825,-281.5 405.825,-275.5 411.825,-269.5 417.825,-269.5"/>
<text text-anchor="middle" x="529.688" y="-354.3" font-family="Times,serif" font-size="14.00">GameDeck</text>
<polyline fill="none" stroke="black" points="405.825,-347.5 653.55,-347.5 "/>
<text text-anchor="start" x="413.825" y="-332.3" font-family="Times,serif" font-size="14.00">id :integer</text>
<text text-anchor="start" x="413.825" y="-318.3" font-family="Times,serif" font-size="14.00">game_id :integer</text>
<text text-anchor="start" x="413.825" y="-304.3" font-family="Times,serif" font-size="14.00">deck_id :integer</text>
<text text-anchor="start" x="413.825" y="-290.3" font-family="Times,serif" font-size="14.00">created_at :timestamp without time zone</text>
<text text-anchor="start" x="413.825" y="-276.3" font-family="Times,serif" font-size="14.00">updated_at :timestamp without time zone</text>
</g>
<!-- Game&#45;&gt;GameDeck -->
<g id="edge5" class="edge"><title>Game&#45;&gt;GameDeck</title>
<path fill="none" stroke="#ae36de" d="M489.571,-407.068C493.911,-397.702 498.289,-388.255 502.476,-379.219"/>
<ellipse fill="none" stroke="#ae36de" cx="487.821" cy="-410.844" rx="4.00002" ry="4.00002"/>
<polygon fill="#ae36de" stroke="#ae36de" points="502.557,-379.046 510.844,-371.865 504.659,-374.51 506.761,-369.973 506.761,-369.973 506.761,-369.973 504.659,-374.51 502.678,-368.081 502.557,-379.046 502.557,-379.046"/>
</g>
<!-- Step -->
<g id="node9" class="node"><title>Step</title>
<path fill="none" stroke="black" d="M683.825,-262.5C683.825,-262.5 907.55,-262.5 907.55,-262.5 913.55,-262.5 919.55,-268.5 919.55,-274.5 919.55,-274.5 919.55,-364.5 919.55,-364.5 919.55,-370.5 913.55,-376.5 907.55,-376.5 907.55,-376.5 683.825,-376.5 683.825,-376.5 677.825,-376.5 671.825,-370.5 671.825,-364.5 671.825,-364.5 671.825,-274.5 671.825,-274.5 671.825,-268.5 677.825,-262.5 683.825,-262.5"/>
<text text-anchor="middle" x="795.688" y="-361.3" font-family="Times,serif" font-size="14.00">Step</text>
<polyline fill="none" stroke="black" points="671.825,-354.5 919.55,-354.5 "/>
<text text-anchor="start" x="679.825" y="-339.3" font-family="Times,serif" font-size="14.00">id :integer</text>
<text text-anchor="start" x="679.825" y="-325.3" font-family="Times,serif" font-size="14.00">game_id :integer</text>
<text text-anchor="start" x="679.825" y="-311.3" font-family="Times,serif" font-size="14.00">game_card_id :integer</text>
<text text-anchor="start" x="679.825" y="-297.3" font-family="Times,serif" font-size="14.00">kind :integer</text>
<text text-anchor="start" x="679.825" y="-283.3" font-family="Times,serif" font-size="14.00">created_at :timestamp without time zone</text>
<text text-anchor="start" x="679.825" y="-269.3" font-family="Times,serif" font-size="14.00">updated_at :timestamp without time zone</text>
</g>
<!-- Game&#45;&gt;Step -->
<g id="edge4" class="edge"><title>Game&#45;&gt;Step</title>
<path fill="none" stroke="#da69fe" d="M585.033,-414.809C585.586,-414.538 586.137,-414.269 586.688,-414 610.947,-402.16 637.043,-390.022 662.294,-378.578"/>
<ellipse fill="none" stroke="#da69fe" cx="581.387" cy="-416.607" rx="4.00002" ry="4.00002"/>
<polygon fill="#da69fe" stroke="#da69fe" points="662.441,-378.512 673.407,-378.496 666.998,-376.453 671.554,-374.395 671.554,-374.395 671.554,-374.395 666.998,-376.453 669.701,-370.294 662.441,-378.512 662.441,-378.512"/>
</g>
<!-- GameCard -->
<g id="node7" class="node"><title>GameCard</title>
<path fill="none" stroke="black" d="M607.825,-428.5C607.825,-428.5 831.55,-428.5 831.55,-428.5 837.55,-428.5 843.55,-434.5 843.55,-440.5 843.55,-440.5 843.55,-530.5 843.55,-530.5 843.55,-536.5 837.55,-542.5 831.55,-542.5 831.55,-542.5 607.825,-542.5 607.825,-542.5 601.825,-542.5 595.825,-536.5 595.825,-530.5 595.825,-530.5 595.825,-440.5 595.825,-440.5 595.825,-434.5 601.825,-428.5 607.825,-428.5"/>
<text text-anchor="middle" x="719.688" y="-527.3" font-family="Times,serif" font-size="14.00">GameCard</text>
<polyline fill="none" stroke="black" points="595.825,-520.5 843.55,-520.5 "/>
<text text-anchor="start" x="603.825" y="-505.3" font-family="Times,serif" font-size="14.00">id :integer</text>
<text text-anchor="start" x="603.825" y="-491.3" font-family="Times,serif" font-size="14.00">game_id :integer</text>
<text text-anchor="start" x="603.825" y="-477.3" font-family="Times,serif" font-size="14.00">card_id :integer</text>
<text text-anchor="start" x="603.825" y="-463.3" font-family="Times,serif" font-size="14.00">user_id :integer</text>
<text text-anchor="start" x="603.825" y="-449.3" font-family="Times,serif" font-size="14.00">created_at :timestamp without time zone</text>
<text text-anchor="start" x="603.825" y="-435.3" font-family="Times,serif" font-size="14.00">updated_at :timestamp without time zone</text>
</g>
<!-- User -->
<g id="node10" class="node"><title>User</title>
<path fill="none" stroke="black" d="M409.825,-607.5C409.825,-607.5 633.55,-607.5 633.55,-607.5 639.55,-607.5 645.55,-613.5 645.55,-619.5 645.55,-619.5 645.55,-737.5 645.55,-737.5 645.55,-743.5 639.55,-749.5 633.55,-749.5 633.55,-749.5 409.825,-749.5 409.825,-749.5 403.825,-749.5 397.825,-743.5 397.825,-737.5 397.825,-737.5 397.825,-619.5 397.825,-619.5 397.825,-613.5 403.825,-607.5 409.825,-607.5"/>
<text text-anchor="middle" x="521.688" y="-734.3" font-family="Times,serif" font-size="14.00">User</text>
<polyline fill="none" stroke="black" points="397.825,-727.5 645.55,-727.5 "/>
<text text-anchor="start" x="405.825" y="-712.3" font-family="Times,serif" font-size="14.00">id :integer</text>
<text text-anchor="start" x="405.825" y="-698.3" font-family="Times,serif" font-size="14.00">name :character varying</text>
<text text-anchor="start" x="405.825" y="-684.3" font-family="Times,serif" font-size="14.00">admin :boolean</text>
<text text-anchor="start" x="405.825" y="-670.3" font-family="Times,serif" font-size="14.00">blackjacks :integer</text>
<text text-anchor="start" x="405.825" y="-656.3" font-family="Times,serif" font-size="14.00">busts :integer</text>
<text text-anchor="start" x="405.825" y="-642.3" font-family="Times,serif" font-size="14.00">majorities :integer</text>
<text text-anchor="start" x="405.825" y="-628.3" font-family="Times,serif" font-size="14.00">created_at :timestamp without time zone</text>
<text text-anchor="start" x="405.825" y="-614.3" font-family="Times,serif" font-size="14.00">updated_at :timestamp without time zone</text>
</g>
<!-- User&#45;&gt;Game -->
<g id="edge8" class="edge"><title>User&#45;&gt;Game</title>
<path fill="none" stroke="#21aaa5" d="M456.231,-600.073C454.516,-596.432 452.986,-592.735 451.688,-589 449.229,-581.928 447.632,-574.413 446.681,-566.79"/>
<ellipse fill="none" stroke="#21aaa5" cx="458.181" cy="-603.898" rx="4.00002" ry="4.00002"/>
<polygon fill="#21aaa5" stroke="#21aaa5" points="446.673,-566.697 450.265,-556.337 446.228,-561.717 445.783,-556.737 445.783,-556.737 445.783,-556.737 446.228,-561.717 441.301,-557.137 446.673,-566.697 446.673,-566.697"/>
</g>
<!-- User&#45;&gt;Game -->
<g id="edge9" class="edge"><title>User&#45;&gt;Game</title>
<path fill="none" stroke="#fce2b6" d="M476.241,-599.983C474.684,-596.317 473.236,-592.645 471.929,-589 469.335,-581.762 467.099,-574.099 465.174,-566.353"/>
<ellipse fill="none" stroke="#fce2b6" cx="477.953" cy="-603.835" rx="4.00002" ry="4.00002"/>
<polygon fill="#fce2b6" stroke="#fce2b6" points="465.154,-566.264 467.283,-555.507 464.026,-561.393 462.899,-556.521 462.899,-556.521 462.899,-556.521 464.026,-561.393 458.515,-557.536 465.154,-566.264 465.154,-566.264"/>
<text text-anchor="middle" x="510.567" y="-577.8" font-family="Times,serif" font-size="14.00">admin_games</text>
</g>
<!-- User&#45;&gt;Game -->
<g id="edge10" class="edge"><title>User&#45;&gt;Game</title>
<path fill="none" stroke="#f3bc7e" d="M554.178,-599.346C554.363,-591.006 553.082,-582.746 549.688,-575 548.189,-571.581 546.486,-568.235 544.612,-564.968"/>
<ellipse fill="none" stroke="#f3bc7e" cx="553.874" cy="-603.364" rx="4" ry="4"/>
<polygon fill="#f3bc7e" stroke="#f3bc7e" points="544.608,-564.961 543.074,-554.103 541.938,-560.733 539.269,-556.505 539.269,-556.505 539.269,-556.505 541.938,-560.733 535.464,-558.908 544.608,-564.961 544.608,-564.961"/>
<text text-anchor="middle" x="586.126" y="-577.8" font-family="Times,serif" font-size="14.00">games_won</text>
</g>
<!-- User&#45;&gt;GameCard -->
<g id="edge11" class="edge"><title>User&#45;&gt;GameCard</title>
<path fill="none" stroke="#cf4507" d="M609.915,-601.972C614.616,-597.63 619.234,-593.287 623.688,-589 636.389,-576.773 649.573,-563.276 661.956,-550.201"/>
<ellipse fill="none" stroke="#cf4507" cx="606.869" cy="-604.763" rx="4.00002" ry="4.00002"/>
<polygon fill="#cf4507" stroke="#cf4507" points="662.29,-549.846 672.421,-545.649 665.717,-546.205 669.144,-542.565 669.144,-542.565 669.144,-542.565 665.717,-546.205 665.867,-539.48 662.29,-549.846 662.29,-549.846"/>
</g>
</g>
</svg>
