<?xml version="1.0" encoding="UTF-8" standalone="no"?>
<!DOCTYPE svg PUBLIC "-//W3C//DTD SVG 1.1//EN"
 "http://www.w3.org/Graphics/SVG/1.1/DTD/svg11.dtd">
<!-- Generated by graphviz version 2.38.0 (20140413.2041)
 -->
<!-- Title: models_diagram Pages: 1 -->
<svg width="613pt" height="386pt"
 viewBox="0.00 0.00 613.10 386.00" xmlns="http://www.w3.org/2000/svg" xmlns:xlink="http://www.w3.org/1999/xlink">
<g id="graph0" class="graph" transform="scale(1 1) rotate(0) translate(4 382)">
<title>models_diagram</title>
<polygon fill="none" stroke="none" points="-4,4 -4,-382 609.1,-382 609.1,4 -4,4"/>
<!-- _diagram_info -->
<g id="node1" class="node"><title>_diagram_info</title>
<text text-anchor="start" x="8" y="-363.6" font-family="Times,serif" font-size="13.00">Models diagram</text>
<text text-anchor="start" x="8" y="-350.6" font-family="Times,serif" font-size="13.00">Date: Feb 20 2016 &#45; 17:48</text>
<text text-anchor="start" x="8" y="-337.6" font-family="Times,serif" font-size="13.00">Migration version: 20160220085936</text>
<text text-anchor="start" x="8" y="-324.6" font-family="Times,serif" font-size="13.00">Generated by RailRoady 1.4.2</text>
<text text-anchor="start" x="8" y="-311.6" font-family="Times,serif" font-size="13.00">http://railroady.prestonlee.com</text>
</g>
<!-- ApplicationRecord -->
<g id="node2" class="node"><title>ApplicationRecord</title>
<ellipse fill="none" stroke="black" cx="302.688" cy="-341.5" rx="77.2916" ry="18"/>
<text text-anchor="middle" x="302.688" y="-337.3" font-family="Times,serif" font-size="14.00">ApplicationRecord</text>
</g>
<!-- Card -->
<g id="node3" class="node"><title>Card</title>
<ellipse fill="none" stroke="black" cx="279.688" cy="-164" rx="27.0958" ry="18"/>
<text text-anchor="middle" x="279.688" y="-159.8" font-family="Times,serif" font-size="14.00">Card</text>
</g>
<!-- Deck -->
<g id="node4" class="node"><title>Deck</title>
<ellipse fill="none" stroke="black" cx="334.688" cy="-91" rx="28.5325" ry="18"/>
<text text-anchor="middle" x="334.688" y="-86.8" font-family="Times,serif" font-size="14.00">Deck</text>
</g>
<!-- Card&#45;&gt;Deck -->
<g id="edge2" class="edge"><title>Card&#45;&gt;Deck</title>
<path fill="none" stroke="#de109a" d="M297.77,-139.658C303.698,-132.005 310.291,-123.494 316.246,-115.806"/>
<polygon fill="#de109a" stroke="#de109a" points="297.746,-139.689 288.064,-144.838 294.684,-143.641 291.622,-147.594 291.622,-147.594 291.622,-147.594 294.684,-143.641 295.179,-150.35 297.746,-139.689 297.746,-139.689"/>
<polygon fill="#de109a" stroke="#de109a" points="316.272,-115.773 325.954,-110.623 319.334,-111.82 322.396,-107.867 322.396,-107.867 322.396,-107.867 319.334,-111.82 318.839,-105.112 316.272,-115.773 316.272,-115.773"/>
</g>
<!-- DeckCard -->
<g id="node5" class="node"><title>DeckCard</title>
<ellipse fill="none" stroke="black" cx="297.688" cy="-18" rx="45.9114" ry="18"/>
<text text-anchor="middle" x="297.688" y="-13.8" font-family="Times,serif" font-size="14.00">DeckCard</text>
</g>
<!-- Card&#45;&gt;DeckCard -->
<g id="edge1" class="edge"><title>Card&#45;&gt;DeckCard</title>
<path fill="none" stroke="#17612e" d="M282.833,-137.838C286.041,-112.172 291.003,-72.4773 294.297,-46.1235"/>
<ellipse fill="none" stroke="#17612e" cx="282.319" cy="-141.947" rx="4.00001" ry="4.00001"/>
<polygon fill="#17612e" stroke="#17612e" points="294.315,-45.9847 300.02,-36.6201 294.935,-41.0233 295.555,-36.0619 295.555,-36.0619 295.555,-36.0619 294.935,-41.0233 291.09,-35.5037 294.315,-45.9847 294.315,-45.9847"/>
</g>
<!-- Deck&#45;&gt;DeckCard -->
<g id="edge3" class="edge"><title>Deck&#45;&gt;DeckCard</title>
<path fill="none" stroke="#d13dda" d="M322.311,-66.2508C318.744,-59.4061 314.835,-51.9045 311.203,-44.9345"/>
<ellipse fill="none" stroke="#d13dda" cx="324.258" cy="-69.9855" rx="4.00002" ry="4.00002"/>
<polygon fill="#d13dda" stroke="#d13dda" points="311.101,-44.7391 310.47,-33.7914 308.79,-40.3051 306.48,-35.871 306.48,-35.871 306.48,-35.871 308.79,-40.3051 302.489,-37.9507 311.101,-44.7391 311.101,-44.7391"/>
</g>
<!-- Game -->
<g id="node6" class="node"><title>Game</title>
<ellipse fill="none" stroke="black" cx="373.688" cy="-237" rx="31.4462" ry="18"/>
<text text-anchor="middle" x="373.688" y="-232.8" font-family="Times,serif" font-size="14.00">Game</text>
</g>
<!-- Game&#45;&gt;Card -->
<g id="edge7" class="edge"><title>Game&#45;&gt;Card</title>
<path fill="none" stroke="#bf981d" d="M344.511,-217.761C336.627,-212.557 328.202,-206.737 320.688,-201 314.58,-196.337 308.226,-191.014 302.395,-185.917"/>
<polygon fill="#bf981d" stroke="#bf981d" points="344.715,-217.893 350.655,-227.112 348.91,-220.615 353.104,-223.337 353.104,-223.337 353.104,-223.337 348.91,-220.615 355.554,-219.562 344.715,-217.893 344.715,-217.893"/>
<polygon fill="#bf981d" stroke="#bf981d" points="302.309,-185.841 297.833,-175.831 298.575,-182.516 294.84,-179.192 294.84,-179.192 294.84,-179.192 298.575,-182.516 291.848,-182.553 302.309,-185.841 302.309,-185.841"/>
</g>
<!-- Game&#45;&gt;Deck -->
<g id="edge6" class="edge"><title>Game&#45;&gt;Deck</title>
<path fill="none" stroke="#c94302" d="M363.023,-209.582C359.75,-200.887 356.322,-191.112 353.688,-182 347.674,-161.194 342.699,-137.174 339.351,-119.184"/>
<polygon fill="#c94302" stroke="#c94302" points="363.13,-209.861 362.538,-220.811 364.933,-214.525 366.736,-219.188 366.736,-219.188 366.736,-219.188 364.933,-214.525 370.933,-217.566 363.13,-209.861 363.13,-209.861"/>
<polygon fill="#c94302" stroke="#c94302" points="339.307,-118.943 341.955,-108.301 338.417,-114.023 337.527,-109.102 337.527,-109.102 337.527,-109.102 338.417,-114.023 333.099,-109.904 339.307,-118.943 339.307,-118.943"/>
</g>
<!-- GameDeck -->
<g id="node8" class="node"><title>GameDeck</title>
<ellipse fill="none" stroke="black" cx="412.688" cy="-164" rx="49.7619" ry="18"/>
<text text-anchor="middle" x="412.688" y="-159.8" font-family="Times,serif" font-size="14.00">GameDeck</text>
</g>
<!-- Game&#45;&gt;GameDeck -->
<g id="edge5" class="edge"><title>Game&#45;&gt;GameDeck</title>
<path fill="none" stroke="#f5636a" d="M386.733,-212.251C390.493,-205.406 394.613,-197.904 398.442,-190.934"/>
<ellipse fill="none" stroke="#f5636a" cx="384.659" cy="-216.027" rx="4.00002" ry="4.00002"/>
<polygon fill="#f5636a" stroke="#f5636a" points="398.606,-190.636 407.365,-184.038 401.013,-186.253 403.421,-181.871 403.421,-181.871 403.421,-181.871 401.013,-186.253 399.476,-179.704 398.606,-190.636 398.606,-190.636"/>
</g>
<!-- Step -->
<g id="node9" class="node"><title>Step</title>
<ellipse fill="none" stroke="black" cx="507.688" cy="-164" rx="27" ry="18"/>
<text text-anchor="middle" x="507.688" y="-159.8" font-family="Times,serif" font-size="14.00">Step</text>
</g>
<!-- Game&#45;&gt;Step -->
<g id="edge4" class="edge"><title>Game&#45;&gt;Step</title>
<path fill="none" stroke="#e03231" d="M403.03,-220.453C425.349,-208.627 455.925,-192.426 478.264,-180.59"/>
<ellipse fill="none" stroke="#e03231" cx="399.35" cy="-222.403" rx="4.00002" ry="4.00002"/>
<polygon fill="#e03231" stroke="#e03231" points="478.45,-180.492 489.393,-179.786 482.868,-178.151 487.286,-175.81 487.286,-175.81 487.286,-175.81 482.868,-178.151 485.179,-171.834 478.45,-180.492 478.45,-180.492"/>
</g>
<!-- GameCard -->
<g id="node7" class="node"><title>GameCard</title>
<ellipse fill="none" stroke="black" cx="556.688" cy="-237" rx="48.3255" ry="18"/>
<text text-anchor="middle" x="556.688" y="-232.8" font-family="Times,serif" font-size="14.00">GameCard</text>
</g>
<!-- User -->
<g id="node10" class="node"><title>User</title>
<ellipse fill="none" stroke="black" cx="424.688" cy="-341.5" rx="27" ry="18"/>
<text text-anchor="middle" x="424.688" y="-337.3" font-family="Times,serif" font-size="14.00">User</text>
</g>
<!-- User&#45;&gt;Game -->
<g id="edge8" class="edge"><title>User&#45;&gt;Game</title>
<path fill="none" stroke="#6404fa" d="M405.707,-319.747C400.466,-314.601 394.59,-309.327 388.688,-305 374.899,-294.89 363.507,-301.648 354.688,-287 350.106,-279.39 351.757,-270.481 355.563,-262.362"/>
<ellipse fill="none" stroke="#6404fa" cx="408.725" cy="-322.812" rx="4.00002" ry="4.00002"/>
<polygon fill="#6404fa" stroke="#6404fa" points="355.588,-262.319 364.463,-255.879 358.073,-257.981 360.558,-253.642 360.558,-253.642 360.558,-253.642 358.073,-257.981 356.654,-251.405 355.588,-262.319 355.588,-262.319"/>
</g>
<!-- User&#45;&gt;Game -->
<g id="edge9" class="edge"><title>User&#45;&gt;Game</title>
<path fill="none" stroke="#8b832b" d="M404.464,-320.171C391.432,-306.834 376.611,-291.125 374.929,-287 372.208,-280.329 371.151,-272.712 370.955,-265.504"/>
<ellipse fill="none" stroke="#8b832b" cx="407.469" cy="-323.229" rx="4.00002" ry="4.00002"/>
<polygon fill="#8b832b" stroke="#8b832b" points="370.958,-265.391 375.689,-255.498 371.074,-260.392 371.19,-255.394 371.19,-255.394 371.19,-255.394 371.074,-260.392 366.692,-255.289 370.958,-265.391 370.958,-265.391"/>
<text text-anchor="middle" x="413.567" y="-275.8" font-family="Times,serif" font-size="14.00">admin_games</text>
</g>
<!-- User&#45;&gt;Game -->
<g id="edge10" class="edge"><title>User&#45;&gt;Game</title>
<path fill="none" stroke="#a7da14" d="M443.629,-319.376C453.635,-305.55 462.083,-287.439 452.688,-273 443.761,-259.282 428.095,-250.9 413.055,-245.797"/>
<ellipse fill="none" stroke="#a7da14" cx="441.113" cy="-322.623" rx="4.00002" ry="4.00002"/>
<polygon fill="#a7da14" stroke="#a7da14" points="412.92,-245.757 404.627,-238.582 408.129,-244.325 403.338,-242.894 403.338,-242.894 403.338,-242.894 408.129,-244.325 402.05,-247.205 412.92,-245.757 412.92,-245.757"/>
<text text-anchor="middle" x="490.126" y="-275.8" font-family="Times,serif" font-size="14.00">games_won</text>
</g>
<!-- User&#45;&gt;GameCard -->
<g id="edge11" class="edge"><title>User&#45;&gt;GameCard</title>
<path fill="none" stroke="#5b897c" d="M455.717,-329.696C477.76,-320.841 507,-306.573 527.688,-287 534.5,-280.554 540.246,-272.156 544.781,-264.138"/>
<ellipse fill="none" stroke="#5b897c" cx="451.974" cy="-331.152" rx="4.00001" ry="4.00001"/>
<polygon fill="#5b897c" stroke="#5b897c" points="544.905,-263.901 553.526,-257.125 547.222,-259.471 549.539,-255.04 549.539,-255.04 549.539,-255.04 547.222,-259.471 545.551,-252.955 544.905,-263.901 544.905,-263.901"/>
</g>
</g>
</svg>
